<svg viewBox="0 0 48 49" xmlns="http://www.w3.org/2000/svg">
    <path d="M13.18 7.243H34.5c.535 0 1.014.33 1.212.822l.036.101.005.019.007.016 5.246 13.331.003.009.002.009.003.009q.064.218.043.481l-.004.043.004.043c.002.024.003.06.003.128v17.151a2.36 2.36 0 0 1-2.355 2.35h-29.4a2.36 2.36 0 0 1-1.489-.533l-.171-.156a2.36 2.36 0 0 1-.69-1.66V22.253c0-.057.003-.116.008-.194l.004-.051-.008-.051a1.2 1.2 0 0 1 .008-.366l.027-.128.002-.007.003-.006.004-.012L11.92 8.21l.007-.016.005-.017a1.31 1.31 0 0 1 1.25-.935ZM9.55 39.155h28.9V22.504h-8.166l-.13.304c-.46 1.076-1.15 1.974-2.026 2.638l-.178.13c-1.094.77-2.458 1.185-3.945 1.185-2.826 0-5.063-1.467-6.121-3.952l-.13-.305H9.549zm4.473-29.002-3.727 9.06-.284.691h9.902l.005.245c.02 1.08.365 2.037 1.025 2.76l.136.142c.75.74 1.775 1.11 2.92 1.11 1.175 0 2.2-.394 2.939-1.113.692-.674 1.1-1.605 1.167-2.682l.008-.217.005-.245h9.662l-.294-.695-3.83-9.06-.129-.306h-19.38z"/>
</svg>
