<svg viewBox="0 0 24 24" xmlns="http://www.w3.org/2000/svg">
    <path fill-rule="evenodd" clip-rule="evenodd" d="M8.256 7.376c.01-2.007 1.686-3.637 3.75-3.637 1.556 0 2.894.935 3.455 2.26 0 0-.219-.444.007 0 .225.445.421.926.934.926 1.211 0 .952-.86.932-.934-.632-2.3-2.78-3.991-5.35-3.991-3.027 0-5.497 2.415-5.507 5.396v1.48S3.5 10.135 3.5 12.89v4.936C3.5 20.131 5.411 22 7.769 22h8.462c2.358 0 4.269-1.87 4.269-4.175V12.89c0-2.306-1.911-4.175-4.269-4.175H8.256zm3.739 9.953a.88.88 0 0 0 .894-.874v-2.206a.88.88 0 0 0-.894-.865.875.875 0 0 0-.884.865v2.206c0 .487.396.875.884.875"/>
</svg>
