<svg viewBox="0 0 24 24" xmlns="http://www.w3.org/2000/svg">
    <path fill-rule="evenodd" clip-rule="evenodd" d="M19.86 3.118a1.87 1.87 0 0 0-2.097.528l-.056.061L16.414 5 19 7.586l1.293-1.293q.034-.035.072-.065a1.83 1.83 0 0 0 .665-1.319 1.8 1.8 0 0 0-.533-1.375 1.85 1.85 0 0 0-.637-.416M17.586 9 15 6.414 4.395 17.02l-.97 3.555 3.556-.97zm-3.293-4.707-11.5 11.5a1 1 0 0 0-.258.444l-1.5 5.5a1 1 0 0 0 1.228 1.228l5.5-1.5a1 1 0 0 0 .444-.258L21.675 7.74a3.83 3.83 0 0 0 1.352-2.732 3.8 3.8 0 0 0-1.116-2.887A3.85 3.85 0 0 0 19.022.994a3.87 3.87 0 0 0-2.756 1.326z"/>
</svg>
